<svg width="512" height="512" viewBox="0 0 512 512" fill="none" xmlns="http://www.w3.org/2000/svg">
  <rect width="512" height="512" rx="200" fill="url(#paint0_linear)"/>
  <g filter="url(#filter0_f)">
    <circle cx="120" cy="140" r="120" fill="#FBD38D" fill-opacity="0.65"/>
  </g>
  <g filter="url(#filter1_f)">
    <circle cx="392" cy="360" r="140" fill="#A78BFA" fill-opacity="0.6"/>
  </g>
  <path d="M130 316C130 220 202 146 300 146C340 146 374 160 404 186L368 226C349 209 328 200 300 200C239 200 194 252 194 316C194 380 239 432 300 432C338 432 367 419 394 394L430 434C397 469 360 492 300 492C202 492 130 412 130 316Z" fill="white" fill-opacity="0.9"/>
  <path d="M213 320C213 269 247 230 300 230C326 230 348 240 366 259L332 298C323 289 313 285 300 285C267 285 248 307 248 320C248 333 267 355 300 355C313 355 323 351 332 341L366 381C348 400 326 410 300 410C247 410 213 371 213 320Z" fill="url(#paint1_linear)"/>
  <defs>
    <filter id="filter0_f" x="-40" y="-20" width="320" height="320" filterUnits="userSpaceOnUse" color-interpolation-filters="sRGB">
      <feGaussianBlur stdDeviation="60"/>
    </filter>
    <filter id="filter1_f" x="172" y="140" width="440" height="440" filterUnits="userSpaceOnUse" color-interpolation-filters="sRGB">
      <feGaussianBlur stdDeviation="70"/>
    </filter>
    <linearGradient id="paint0_linear" x1="46" y1="54" x2="478" y2="470" gradientUnits="userSpaceOnUse">
      <stop stop-color="#FF8FB1"/>
      <stop offset="0.5" stop-color="#FEC260"/>
      <stop offset="1" stop-color="#8B5CF6"/>
    </linearGradient>
    <linearGradient id="paint1_linear" x1="213" y1="230" x2="370" y2="410" gradientUnits="userSpaceOnUse">
      <stop stop-color="#FF9B73"/>
      <stop offset="1" stop-color="#8B5CF6"/>
    </linearGradient>
  </defs>
</svg>


